<?xml version="1.0" encoding="UTF-8" standalone="no"?>
<!-- Created with Inkscape (http://www.inkscape.org/) -->

<svg
   width="25.290001mm"
   height="25.290001mm"
   viewBox="0 0 25.290001 25.290001"
   version="1.1"
   id="svg3806"
   inkscape:version="1.2.2 (b0a8486541, 2022-12-01)"
   sodipodi:docname="placeholder.svg"
   inkscape:export-filename="placeholder.png"
   inkscape:export-xdpi="100"
   inkscape:export-ydpi="100"
   xmlns:inkscape="http://www.inkscape.org/namespaces/inkscape"
   xmlns:sodipodi="http://sodipodi.sourceforge.net/DTD/sodipodi-0.dtd"
   xmlns="http://www.w3.org/2000/svg"
   xmlns:svg="http://www.w3.org/2000/svg">
  <sodipodi:namedview
     id="namedview3808"
     pagecolor="#ffffff"
     bordercolor="#666666"
     borderopacity="1.0"
     inkscape:showpageshadow="2"
     inkscape:pageopacity="0.0"
     inkscape:pagecheckerboard="0"
     inkscape:deskcolor="#d1d1d1"
     inkscape:document-units="mm"
     showgrid="false"
     showguides="true"
     inkscape:zoom="5.3267141"
     inkscape:cx="45.619118"
     inkscape:cy="43.084723"
     inkscape:window-width="1920"
     inkscape:window-height="1050"
     inkscape:window-x="1920"
     inkscape:window-y="0"
     inkscape:window-maximized="1"
     inkscape:current-layer="layer1">
    <sodipodi:guide
       position="19.180849,12.654271"
       orientation="0,-1"
       id="guide8161"
       inkscape:locked="false" />
    <sodipodi:guide
       position="12.71423,18.23286"
       orientation="1,0"
       id="guide8237"
       inkscape:locked="false" />
  </sodipodi:namedview>
  <defs
     id="defs3803">
    <clipPath
       clipPathUnits="userSpaceOnUse"
       id="clipPath6537">
      <g
         id="g6541"
         transform="matrix(2.8346458,0,0,-2.8346458,-395.55369,341.05312)">
        <path
           d="M 50.289773,-51.923726 H 332.51199 V 230.29849 H 50.289773 Z"
           id="path6539"
           style="stroke-width:0.352778" />
      </g>
    </clipPath>
    <clipPath
       clipPathUnits="userSpaceOnUse"
       id="clipPath6543">
      <g
         id="g6547"
         transform="matrix(2.8346458,0,0,-2.8346458,-447.16718,354.47973)">
        <path
           d="M 50.289773,-51.923726 H 332.51199 V 230.29849 H 50.289773 Z"
           id="path6545"
           style="stroke-width:0.352778" />
      </g>
    </clipPath>
    <clipPath
       clipPathUnits="userSpaceOnUse"
       id="clipPath6549">
      <g
         id="g6553"
         transform="matrix(2.8346458,0,0,-2.8346458,-425.3573,364.40482)">
        <path
           d="M 50.289773,-51.923726 H 332.51199 V 230.29849 H 50.289773 Z"
           id="path6551"
           style="stroke-width:0.352778" />
      </g>
    </clipPath>
    <clipPath
       clipPathUnits="userSpaceOnUse"
       id="clipPath6555">
      <g
         id="g6559"
         transform="matrix(2.8346458,0,0,-2.8346458,-419.17599,355.24143)">
        <path
           d="M 50.289773,-51.923726 H 332.51199 V 230.29849 H 50.289773 Z"
           id="path6557"
           style="stroke-width:0.352778" />
      </g>
    </clipPath>
    <clipPath
       clipPathUnits="userSpaceOnUse"
       id="clipPath6561">
      <g
         id="g6565"
         transform="matrix(2.8346458,0,0,-2.8346458,-439.3683,348.20964)">
        <path
           d="M 50.289773,-51.923726 H 332.51199 V 230.29849 H 50.289773 Z"
           id="path6563"
           style="stroke-width:0.352778" />
      </g>
    </clipPath>
    <clipPath
       clipPathUnits="userSpaceOnUse"
       id="clipPath6567">
      <g
         id="g6571"
         transform="matrix(2.8346458,0,0,-2.8346458,-439.428,353.90152)">
        <path
           d="M 50.289773,-51.923726 H 332.51199 V 230.29849 H 50.289773 Z"
           id="path6569"
           style="stroke-width:0.352778" />
      </g>
    </clipPath>
    <clipPath
       clipPathUnits="userSpaceOnUse"
       id="clipPath6573">
      <g
         id="g6577"
         transform="matrix(2.8346458,0,0,-2.8346458,-402.46989,406.67052)">
        <path
           d="M 50.289773,-51.923726 H 332.51199 V 230.29849 H 50.289773 Z"
           id="path6575"
           style="stroke-width:0.352778" />
      </g>
    </clipPath>
    <clipPath
       clipPathUnits="userSpaceOnUse"
       id="clipPath6579">
      <g
         id="g6583"
         transform="matrix(2.8346458,0,0,-2.8346458,-408.76748,363.65253)">
        <path
           d="M 50.289773,-51.923726 H 332.51199 V 230.29849 H 50.289773 Z"
           id="path6581"
           style="stroke-width:0.352778" />
      </g>
    </clipPath>
    <clipPath
       clipPathUnits="userSpaceOnUse"
       id="clipPath6585">
      <g
         id="g6589"
         transform="matrix(2.8346458,0,0,-2.8346458,-408.76748,406.97414)">
        <path
           d="M 50.289773,-51.923726 H 332.51199 V 230.29849 H 50.289773 Z"
           id="path6587"
           style="stroke-width:0.352778" />
      </g>
    </clipPath>
    <clipPath
       clipPathUnits="userSpaceOnUse"
       id="clipPath6591">
      <g
         id="g6595"
         transform="matrix(2.8346458,0,0,-2.8346458,-439.05218,393.64323)">
        <path
           d="M 50.289773,-51.923726 H 332.51199 V 230.29849 H 50.289773 Z"
           id="path6593"
           style="stroke-width:0.352778" />
      </g>
    </clipPath>
  </defs>
  <g
     inkscape:label="Capa 1"
     inkscape:groupmode="layer"
     id="layer1"
     transform="translate(-141.98229,-120.9742)">
    <g
       id="g8181"
       transform="translate(4.4850599)">
      <g
         id="g1680"
         transform="matrix(0.35277777,0,0,-0.35277777,154.88785,138.86858)"
         clip-path="url(#clipPath6591)">
        <path
           d="m 0,0 -36.582,-13.027 0.316,45.433 36.582,13.028 z"
           style="fill:#a8a8a8;fill-opacity:1;fill-rule:nonzero;stroke:none"
           id="path1682" />
      </g>
      <g
         id="g1684"
         transform="matrix(0.35277777,0,0,-0.35277777,144.20408,143.57143)"
         clip-path="url(#clipPath6585)">
        <path
           d="M 0,0 4.284,-7.633 2.469,37.766 0,43.322 Z"
           style="fill:#b7b7b7;fill-opacity:1;fill-rule:nonzero;stroke:none"
           id="path1686" />
      </g>
      <g
         id="g1688"
         transform="matrix(0.35277777,0,0,-0.35277777,144.20408,128.28853)"
         clip-path="url(#clipPath6579)">
        <path
           d="M 0,0 -5.982,2.415 -6.298,-43.018 0,-43.322 Z"
           style="fill:#dbdbdb;fill-opacity:1;fill-rule:nonzero;stroke:none"
           id="path1690" />
      </g>
      <g
         id="g1692"
         transform="matrix(0.35277777,0,0,-0.35277777,141.98243,143.46432)"
         clip-path="url(#clipPath6573)">
        <path
           d="M 0,0 10.581,-7.936 6.298,-0.304 Z"
           style="fill:#a8a8a8;fill-opacity:1;fill-rule:nonzero;stroke:none"
           id="path1694" />
      </g>
      <g
         id="g1696"
         transform="matrix(0.35277777,0,0,-0.35277777,155.02043,124.84859)"
         clip-path="url(#clipPath6567)">
        <path
           d="M 0,0 7.739,-0.578 -2.365,-4.72 v 4.897"
           style="fill:#b7b7b7;fill-opacity:1;fill-rule:nonzero;stroke:none"
           id="path1698" />
      </g>
      <g
         id="g1700"
         transform="matrix(0.35277777,0,0,-0.35277777,154.99937,122.84062)"
         clip-path="url(#clipPath6561)">
        <path
           d="M 0,0 -2.305,-5.515 0.06,-5.692 Z"
           style="fill:#dbdbdb;fill-opacity:1;fill-rule:nonzero;stroke:none"
           id="path1702" />
      </g>
      <g
         id="g1704"
         transform="matrix(0.35277777,0,0,-0.35277777,147.87597,125.32128)"
         clip-path="url(#clipPath6555)">
        <path
           d="M 0,0 C 0.003,-0.055 0.015,-0.103 0.032,-0.148 L 0.886,0.157 C 0.788,2.165 0.554,4.177 -0.053,6.101 -0.669,8.052 -1.057,11.036 1.766,11.397 5.514,11.878 5.683,4.457 5.809,2.069 5.812,2.014 5.825,1.966 5.842,1.922 L 6.696,2.225 C 6.539,5.296 6.273,12.621 1.859,12.313 0.136,12.192 -1.188,10.817 -1.46,9.153 -1.667,7.88 -1.196,6.776 -0.83,5.581 -0.277,3.776 -0.085,1.879 0,0"
           style="fill:#a8a8a8;fill-opacity:1;fill-rule:nonzero;stroke:none"
           id="path1706" />
      </g>
      <g
         id="g1708"
         transform="matrix(0.35277777,0,0,-0.35277777,150.0566,128.55392)"
         clip-path="url(#clipPath6549)">
        <path
           d="m 0,0 c 0.055,2.065 -0.119,4.189 -0.566,6.205 -0.345,1.554 -1.36,3.242 -0.822,4.859 0.432,1.299 1.885,2.316 3.269,1.849 C 3.987,12.204 4.361,8.658 4.614,6.81 4.816,5.334 4.931,3.834 4.938,2.343 4.941,1.768 5.836,1.767 5.833,2.343 5.823,4.401 5.635,6.492 5.237,8.511 4.839,10.527 4.112,13.467 1.707,13.865 -0.816,14.282 -2.622,11.907 -2.404,9.565 -2.221,7.609 -1.297,5.751 -1.072,3.762 -0.932,2.517 -0.861,1.253 -0.894,0 -0.91,-0.576 -0.015,-0.575 0,0"
           style="fill:#d8d8d8;fill-opacity:1;fill-rule:nonzero;stroke:none"
           id="path1710" />
      </g>
      <g
         id="g1712"
         transform="matrix(0.35277777,0,0,-0.35277777,157.75064,125.05257)"
         clip-path="url(#clipPath6543)">
        <path
           d="m 0,0 -35.931,-14.729 1.815,-45.398 35.931,14.729 z"
           style="fill:#dbdbdb;fill-opacity:1;fill-rule:nonzero;stroke:none"
           id="path1714" />
      </g>
    </g>
  </g>
</svg>
